<svg xmlns="http://www.w3.org/2000/svg" viewBox="0 0 920 220">
  <defs>
    <radialGradient id="glow" cx="50%" cy="50%" r="70%">
      <stop offset="0%" stop-color="#c084fc" stop-opacity="0.35"/>
      <stop offset="100%" stop-color="#8b5cf6" stop-opacity="0"/>
    </radialGradient>
    <linearGradient id="purpleWord" x1="0" y1="0" x2="1" y2="1">
      <stop offset="0%" stop-color="#f0e4ff"/>
      <stop offset="100%" stop-color="#8b5cf6"/>
    </linearGradient>
    <filter id="softGlow" x="-20%" y="-20%" width="140%" height="140%">
      <feDropShadow dx="0" dy="0" stdDeviation="10" flood-color="#9b5cff" flood-opacity="0.45"/>
    </filter>
  </defs>

  <ellipse cx="462" cy="112" rx="280" ry="82" fill="url(#glow)"/>

  <g transform="translate(28 62)" opacity="0.95">
    <path d="M0 43c0-14 11-25 25-25h34c14 0 25 11 25 25v15c0 14-11 25-25 25H25C11 83 0 72 0 58Z" fill="#1b1230"/>
    <circle cx="42" cy="50" r="32" fill="none" stroke="#f0e8ff" stroke-opacity="0.42" stroke-width="9"/>
    <path d="M78 50h92" stroke="#f1e8ff" stroke-linecap="round" stroke-opacity="0.9" stroke-width="12"/>
    <path d="M95 26v48M111 18v64" stroke="#9b5cff" stroke-linecap="round" stroke-width="12"/>
  </g>

  <g transform="translate(742 62)" opacity="0.95">
    <path d="M0 43c0-14 11-25 25-25h34c14 0 25 11 25 25v15c0 14-11 25-25 25H25C11 83 0 72 0 58Z" fill="#1b1230"/>
    <circle cx="42" cy="50" r="32" fill="none" stroke="#f0e8ff" stroke-opacity="0.42" stroke-width="9"/>
    <path d="M-92 50H0" stroke="#f1e8ff" stroke-linecap="round" stroke-opacity="0.9" stroke-width="12"/>
    <path d="M-75 26v48M-59 18v64" stroke="#9b5cff" stroke-linecap="round" stroke-width="12"/>
  </g>

  <g transform="translate(186 42) skewX(-14)" filter="url(#softGlow)">
    <text x="0" y="118" fill="#ffffff" font-family="Trebuchet MS, Segoe UI, sans-serif" font-size="152" font-style="italic" font-weight="700" letter-spacing="-10">Sa</text>
    <text x="191" y="140" fill="url(#purpleWord)" font-family="Trebuchet MS, Segoe UI, sans-serif" font-size="214" font-style="italic" font-weight="900" letter-spacing="-12">7</text>
    <text x="338" y="118" fill="#ffffff" font-family="Trebuchet MS, Segoe UI, sans-serif" font-size="152" font-style="italic" font-weight="700" letter-spacing="-10">d</text>
  </g>
</svg>
